<?xml version="1.0" standalone="no"?>
<!DOCTYPE svg PUBLIC "-//W3C//DTD SVG 20010904//EN"
 "http://www.w3.org/TR/2001/REC-SVG-20010904/DTD/svg10.dtd">
<svg version="1.0" xmlns="http://www.w3.org/2000/svg"
 width="200.000000pt" height="200.000000pt" viewBox="0 0 200.000000 200.000000"
 preserveAspectRatio="xMidYMid meet">
<metadata>
Created by potrace 1.11, written by Peter Selinger 2001-2013
</metadata>
<g transform="translate(0.000000,200.000000) scale(0.100000,-0.100000)"
fill="#000000" stroke="none">
<path d="M663 1896 c-26 -29 -82 -90 -123 -136 -161 -181 -284 -315 -293 -321
-4 -3 -28 -5 -52 -4 -68 4 -73 -3 -80 -140 -3 -66 -8 -142 -11 -170 -5 -61
-10 -141 -20 -300 -4 -66 -8 -131 -9 -145 -2 -32 6 -43 96 -138 41 -43 131
-139 201 -213 70 -75 133 -136 140 -136 21 0 219 -14 262 -18 31 -3 46 -13 75
-47 20 -24 50 -58 67 -77 l31 -34 354 134 354 134 37 90 c20 50 41 101 47 115
5 14 61 152 124 307 l114 282 -123 338 c-68 185 -130 342 -137 349 -6 6 -73
36 -147 66 -94 39 -165 61 -232 72 -96 17 -99 16 -177 -5 l-80 -22 -138 28
c-76 15 -149 29 -163 31 -14 1 -35 5 -47 8 -17 3 -33 -7 -70 -48z m257 -50
l165 -33 84 24 c46 13 87 21 92 16 4 -4 -47 -50 -114 -100 -67 -51 -238 -181
-380 -289 -142 -108 -260 -194 -263 -191 -3 3 -43 149 -69 252 -3 14 7 33 32
61 21 22 70 76 108 119 130 146 158 175 169 175 6 -1 85 -16 176 -34z m636
-75 l122 -52 22 -62 c12 -34 65 -178 117 -319 l94 -257 -57 -143 c-31 -79 -60
-146 -64 -150 -3 -5 -50 148 -105 340 -96 338 -101 351 -187 526 -49 98 -84
176 -76 173 7 -3 68 -28 134 -56z m-118 -138 c51 -104 99 -210 107 -238 7 -27
53 -191 102 -362 50 -172 87 -313 84 -313 -3 0 -37 7 -76 15 -72 16 -304 64
-340 71 -11 2 -63 13 -115 24 -110 24 -117 26 -187 41 -29 6 -53 12 -53 15 0
2 16 43 35 90 l34 86 -68 187 c-38 102 -71 195 -74 206 -5 16 12 33 91 92 53
40 156 117 227 172 72 55 132 100 135 101 3 0 47 -84 98 -187z m-1048 -166 c0
-8 27 -117 61 -243 33 -126 62 -236 64 -245 2 -9 8 -34 14 -55 11 -39 11 -39
-42 -89 -56 -54 -193 -176 -243 -218 l-31 -26 -42 43 c-23 23 -40 44 -37 47 2
2 7 58 11 124 3 66 8 140 10 165 2 25 6 90 10 145 9 159 17 250 21 255 3 2 25
4 49 5 41 0 49 5 91 53 46 52 64 63 64 39z m511 -233 l61 -173 -41 -102 c-35
-86 -39 -105 -28 -116 11 -11 137 -42 267 -66 68 -13 78 -18 75 -40 -15 -99
-28 -204 -27 -214 2 -6 -36 -44 -84 -85 -47 -40 -100 -86 -118 -101 -28 -25
-116 -77 -131 -77 -3 0 -3 10 -1 23 3 12 15 71 27 131 25 128 28 121 -76 156
-80 27 -167 105 -182 165 -6 22 -27 103 -48 180 -20 77 -39 147 -41 155 -2 8
-8 33 -14 55 -6 22 -12 48 -15 57 -5 22 295 254 306 236 4 -7 35 -90 70 -184z
m-321 -504 c10 -47 22 -65 78 -122 53 -54 79 -72 129 -90 35 -13 63 -28 63
-34 0 -7 -9 -56 -21 -110 -11 -55 -21 -107 -22 -116 -2 -22 -10 -23 -162 -12
-22 1 -57 3 -77 3 -20 1 -43 7 -50 14 -55 56 -244 262 -250 272 -5 8 18 35 64
76 195 175 223 198 229 186 4 -7 12 -37 19 -67z m1094 -62 c32 -7 59 -17 58
-23 0 -5 -28 -78 -62 -161 l-61 -150 -322 -123 -322 -122 -42 48 c-24 26 -43
50 -43 53 0 3 24 16 53 28 30 13 65 33 79 45 14 12 74 62 133 110 58 49 110
99 115 111 5 13 11 54 14 91 4 38 9 78 12 89 3 12 7 35 9 51 2 17 4 31 4 31 1
1 269 -54 375 -78z"/>
</g>
</svg>
